<svg xmlns="http://www.w3.org/2000/svg" viewBox="0 0 412 412" width="512" height="512"><g fill="#1B3062"><path d="M328.567 121.545h-303a7.5 7.5 0 0 0-7.5 7.5V404.5a7.5 7.5 0 0 0 7.5 7.5h303a7.5 7.5 0 0 0 7.5-7.5V129.045a7.5 7.5 0 0 0-7.5-7.5zM321.067 397h-288V136.545h288V397z"/><path d="M51.965 385.603h250.204a7.5 7.5 0 0 0 7.5-7.5v-222.66a7.5 7.5 0 0 0-7.5-7.5H51.965a7.5 7.5 0 0 0-7.5 7.5v222.659a7.5 7.5 0 0 0 7.5 7.501zm7.5-222.66h235.204v207.659H59.465V162.943z"/><path d="M259.703 224.841H94.431a7.5 7.5 0 0 0-7.5 7.5v101a7.5 7.5 0 0 0 7.5 7.5h165.272a7.5 7.5 0 0 0 7.5-7.5v-101a7.5 7.5 0 0 0-7.5-7.5zm-7.5 101H101.931v-86h150.272v86zm29.137-149.205a7.5 7.5 0 0 0-7.5 7.5v9.716H87.181v-9.716c0-4.142-3.357-7.5-7.5-7.5s-7.5 3.358-7.5 7.5v17.216a7.5 7.5 0 0 0 7.5 7.5H281.34a7.5 7.5 0 0 0 7.5-7.5v-17.216a7.5 7.5 0 0 0-7.5-7.5zM27.194 35.659h5.125V95.16c0 11.491 9.349 20.84 20.84 20.84h83.502c11.491 0 20.84-9.349 20.84-20.84V35.659h5.125c4.143 0 7.5-3.358 7.5-7.5s-3.357-7.5-7.5-7.5h-62.512V7.5c0-4.142-3.357-7.5-7.5-7.5s-7.5 3.358-7.5 7.5v13.159h-57.92a7.5 7.5 0 0 0 0 15zm115.307 0V95.16c0 3.22-2.62 5.84-5.84 5.84H53.159c-3.22 0-5.84-2.62-5.84-5.84V35.659h95.182zm243.932 35.029H202.797a7.5 7.5 0 0 0-7.307 9.193l7.024 30.312a7.5 7.5 0 0 0 7.307 5.807h96.132a7.501 7.501 0 0 0 7.307-5.807l5.68-24.505h67.493a7.5 7.5 0 0 0 0-15zM299.992 101h-84.21l-3.549-15.312h91.308L299.992 101z"/><path d="M128.37 274.847h97.394c4.143 0 7.5-3.358 7.5-7.5s-3.357-7.5-7.5-7.5H128.37a7.5 7.5 0 0 0 0 15zm0 30.988h97.394c4.143 0 7.5-3.358 7.5-7.5s-3.357-7.5-7.5-7.5H128.37a7.5 7.5 0 0 0 0 15z"/></g></svg>